<svg width="64" height="64" viewBox="0 0 64 64" fill="none" xmlns="http://www.w3.org/2000/svg">
<path d="M32 3C28.7157 2.9995 25.4939 3.89758 22.6835 5.59698C19.873 7.29637 17.5811 9.7323 16.0559 12.641C14.5307 15.5496 13.8304 18.8201 14.0308 22.0983C14.2312 25.3764 15.3247 28.5373 17.1928 31.2385C19.0609 33.9397 21.6324 36.0784 24.6289 37.4228C27.6254 38.7672 30.9327 39.2662 34.1924 38.8656C37.4522 38.4651 40.5402 37.1804 43.1221 35.1505C45.704 33.1207 47.6814 30.4231 48.84 27.35C49.6128 25.3224 50.006 23.1699 50 21C50 16.2261 48.1036 11.6477 44.7279 8.27208C41.3523 4.89642 36.7739 3 32 3V3ZM47 26.65C45.8501 29.6967 43.7979 32.3199 41.1176 34.1693C38.4372 36.0187 35.2564 37.0063 32 37C31.47 37 30.94 37 30.41 36.92C26.7411 36.5652 23.3108 34.942 20.71 32.33V32.33C18.8443 30.4721 17.466 28.1826 16.6972 25.6643C15.9284 23.1461 15.793 20.4771 16.3029 17.894C16.8128 15.3109 17.9523 12.8936 19.6203 10.8564C21.2883 8.81921 23.4333 7.22514 25.865 6.21557C28.2967 5.206 30.94 4.81213 33.5603 5.0689C36.1807 5.32567 38.6973 6.22514 40.8867 7.68754C43.0762 9.14993 44.871 11.1301 46.1118 13.4523C47.3526 15.7745 48.0012 18.3671 48 21C48.0163 22.9288 47.6773 24.844 47 26.65Z" fill="#ffffff" id="id_103"></path>
<path d="M44 37C43.7348 37 43.4804 37.1054 43.2929 37.2929C43.1054 37.4804 43 37.7348 43 38V57.73L32.68 48.26C32.4951 48.0885 32.2522 47.9932 32 47.9932C31.7478 47.9932 31.5049 48.0885 31.32 48.26L21 57.73V38C21 37.7348 20.8946 37.4804 20.7071 37.2929C20.5196 37.1054 20.2652 37 20 37C19.7348 37 19.4804 37.1054 19.2929 37.2929C19.1054 37.4804 19 37.7348 19 38V60C18.9993 60.1952 19.0558 60.3863 19.1624 60.5498C19.269 60.7132 19.4211 60.8419 19.6 60.92C19.778 60.9983 19.975 61.0229 20.1668 60.9909C20.3587 60.959 20.537 60.8718 20.68 60.74L32 50.36L43.32 60.74C43.506 60.909 43.7487 61.0019 44 61C44.1372 60.9985 44.2728 60.9714 44.4 60.92C44.5789 60.8419 44.731 60.7132 44.8376 60.5498C44.9442 60.3863 45.0007 60.1952 45 60V38C45 37.7348 44.8946 37.4804 44.7071 37.2929C44.5196 37.1054 44.2652 37 44 37Z" fill="#ffffff" id="id_104"></path>
</svg>