<svg width="64" height="64" viewBox="0 0 64 64" fill="none" xmlns="http://www.w3.org/2000/svg">
<path d="M38.1801 25.9999C40.1697 24.669 41.6786 22.7336 42.4842 20.4795C43.2897 18.2254 43.3491 15.7721 42.6537 13.4816C41.9582 11.1911 40.5447 9.18499 38.6219 7.7593C36.6991 6.33362 34.3688 5.56396 31.9751 5.56396C29.5813 5.56396 27.2511 6.33362 25.3282 7.7593C23.4054 9.18499 21.9919 11.1911 21.2964 13.4816C20.601 15.7721 20.6604 18.2254 21.466 20.4795C22.2715 22.7336 23.7804 24.669 25.7701 25.9999C20.838 27.3631 16.4868 30.3015 13.3798 34.3672C10.2727 38.4329 8.58017 43.403 8.56006 48.5199C8.5627 49.8876 9.10719 51.1986 10.0743 52.1657C11.0414 53.1328 12.3524 53.6773 13.7201 53.6799H25.7801C26.0622 54.7783 26.6303 55.7824 27.4265 56.5899C28.2227 57.3975 29.2186 57.9797 30.3129 58.2774C31.4071 58.5751 32.5607 58.5777 33.6563 58.2848C34.7519 57.9919 35.7503 57.414 36.5501 56.6099V56.6099C37.3599 55.801 37.9367 54.7889 38.2201 53.6799H50.8601C52.0739 53.6773 53.2373 53.1939 54.0957 52.3356C54.954 51.4772 55.4374 50.3138 55.4401 49.0999C55.4301 43.9053 53.7455 38.8524 50.6362 34.6911C47.5269 30.5298 43.1588 27.4819 38.1801 25.9999V25.9999ZM23.8401 16.6599C23.842 15.0465 24.3223 13.4698 25.2201 12.1292C26.118 10.7886 27.3931 9.74429 28.8843 9.12821C30.3755 8.51213 32.0159 8.35196 33.5981 8.66795C35.1803 8.98393 36.6334 9.76188 37.7736 10.9035C38.9138 12.0451 39.6899 13.4991 40.004 15.0817C40.318 16.6643 40.1559 18.3045 39.538 19.7949C38.92 21.2854 37.8742 22.5592 36.5325 23.4554C35.1908 24.3516 33.6135 24.8299 32.0001 24.8299C29.835 24.8273 27.7595 23.9653 26.2295 22.4335C24.6994 20.9016 23.8401 18.825 23.8401 16.6599V16.6599ZM34.4301 54.4899C33.9498 54.9683 33.3387 55.2937 32.6737 55.425C32.0087 55.5563 31.3197 55.4876 30.6937 55.2276C30.0677 54.9676 29.5328 54.528 29.1565 53.9642C28.7801 53.4004 28.5793 52.7378 28.5793 52.0599C28.5793 51.3821 28.7801 50.7195 29.1565 50.1557C29.5328 49.5919 30.0677 49.1523 30.6937 48.8923C31.3197 48.6323 32.0087 48.5636 32.6737 48.6949C33.3387 48.8262 33.9498 49.1515 34.4301 49.6299C35.0737 50.2749 35.4352 51.1488 35.4352 52.0599C35.4352 52.9711 35.0737 53.845 34.4301 54.4899V54.4899ZM50.8601 50.6799H38.2801C37.9654 49.2487 37.1712 47.9678 36.0291 47.0495C34.887 46.1313 33.4655 45.6307 32.0001 45.6307C30.5346 45.6307 29.1131 46.1313 27.971 47.0495C26.8289 47.9678 26.0347 49.2487 25.7201 50.6799H13.7201C13.1472 50.6799 12.5978 50.4524 12.1927 50.0473C11.7876 49.6422 11.5601 49.0928 11.5601 48.5199C11.5597 45.7771 12.1118 43.0622 13.1832 40.5373C14.2546 38.0123 15.8235 35.7289 17.7963 33.8233C19.7691 31.9177 22.1054 30.4289 24.666 29.4456C27.2265 28.4622 29.9588 28.0046 32.7001 28.0999C43.5801 28.4599 52.4401 37.8799 52.4401 49.0999C52.4401 49.519 52.2736 49.9209 51.9773 50.2172C51.681 50.5135 51.2791 50.6799 50.8601 50.6799V50.6799Z" fill="#ffffff" id="id_101"></path>
</svg>