<svg xmlns="http://www.w3.org/2000/svg" xml:space="preserve" width="1.70666in" height="1.70666in" version="1.1" style="shape-rendering:geometricPrecision; text-rendering:geometricPrecision; image-rendering:optimizeQuality; fill-rule:evenodd; clip-rule:evenodd" viewBox="0 0 1706.66 1706.66" xmlns:xlink="http://www.w3.org/1999/xlink" xmlns:xodm="http://www.corel.com/coreldraw/odm/2003">
 <defs>
  <style type="text/css">
   
    .fil0 {fill:black}
   
  </style>
 </defs>
 <g id="Layer_x0020_1">
  <metadata id="CorelCorpID_0Corel-Layer"></metadata>
  <path class="fil0" d="M984.64 784.3l-829.14 0c-34.44,0 -62.47,-28.03 -62.47,-62.46l0 -133.48c0,-34.44 28.03,-62.47 62.47,-62.47l829.14 0c34.44,0 62.47,28.03 62.47,62.47l0 133.48c0,34.44 -28.01,62.46 -62.47,62.46zm-829.14 -218.4c-12.39,0 -22.47,10.08 -22.47,22.47l0 133.48c0,12.39 10.08,22.46 22.47,22.46l829.14 0c12.39,0 22.46,-10.08 22.46,-22.46l0 -133.48c0,-12.39 -10.08,-22.47 -22.46,-22.47l-829.14 -0z" id="id_101" style="fill: rgb(0, 69, 10);"></path>
  <path class="fil0" d="M714.87 1603.34l-289.6 0c-92.19,0 -167.54,-74.71 -175.24,-173.74l-51.76 -663.74c-0.9,-11.56 8.33,-21.56 19.93,-21.56l703.74 -0c11.6,0 20.85,9.99 19.95,21.56l-51.78 663.74c-7.7,99.04 -83.05,173.75 -175.23,173.75zm-475.06 -819.05l50.08 642.18c6.08,78.02 64.28,136.85 135.37,136.85l289.6 0c71.09,0 129.29,-58.81 135.37,-136.85l50.08 -642.18 -660.51 0z" id="id_102" style="fill: rgb(0, 66, 11);"></path>
  <path class="fil0" d="M703.35 1141.37c-24.8,0 -27.08,-37.07 -2.21,-39.87 220.79,-24.88 388.89,-206.44 398.55,-426.39l-72.58 0c-26.33,0 -26.32,-40 0,-40l93.01 0c11.04,0 20,8.96 20,20 0,249.24 -186.8,458.24 -434.52,486.14 -0.74,0.09 -1.5,0.13 -2.25,0.13zm-266.56 0c-0.75,0 -1.5,-0.04 -2.26,-0.13 -247.7,-27.9 -434.5,-236.9 -434.5,-486.13 0,-11.04 8.96,-20 20,-20l93.01 0 0 40 -72.58 -0c9.65,219.95 177.74,401.53 398.53,426.4 24.87,2.8 22.6,39.86 -2.19,39.86z" id="id_103" style="fill: rgb(0, 69, 12);"></path>
  <path class="fil0" d="M641.78 1206.04l-143.4 0c-107.52,0 -107.52,-163.4 0,-163.4l143.4 -0c107.51,0 107.49,163.4 0,163.4zm-143.4 -123.37c-54.89,0 -54.87,83.37 0,83.37l143.4 0c54.87,0 54.83,-83.37 0,-83.37l-143.4 0z" id="id_104" style="fill: rgb(0, 64, 11);"></path>
  <path class="fil0" d="M1342.43 729.44c-11.04,0 -20,-8.96 -20,-20l0 -586.85c0,-26.32 40,-26.32 40,0l0 586.85c0,11.04 -8.96,20 -20,20z" id="id_105" style="fill: rgb(2, 82, 15);"></path>
  <path class="fil0" d="M1403.09 1051.06l-121.32 0c-11.04,0 -20,-8.97 -20,-20l0 -321.62c0,-11.04 8.97,-20 20,-20l121.32 0c11.04,0 20,8.96 20,20l0 321.62c0,11.04 -8.96,20 -20,20zm-101.32 -40.02l81.3 0 0 -281.6 -81.3 0 0 281.6z" id="id_106" style="fill: rgb(1, 84, 15);"></path>
  <path class="fil0" d="M1342.43 1225.99c-11.04,0 -20,-8.97 -20,-20l0 -174.93c0,-26.33 40,-26.32 40,0l0 174.93c0,11.04 -8.96,20 -20,20z" id="id_107" style="fill: rgb(0, 71, 12);"></path>
  <path class="fil0" d="M1686.64 1604.07l-688.41 0c-25.46,0 -20,-31.38 -20,-53.86 0,-135.48 110.23,-245.7 245.71,-245.7l237 0c135.48,0 245.7,110.24 245.7,245.7 0,22.48 5.46,53.86 -20,53.86zm-668.41 -40.02l648.41 0 0 -13.86c0,-113.43 -92.28,-205.7 -205.7,-205.7l-237 0c-113.43,0 -205.72,92.28 -205.72,205.7l0 13.86z" id="id_108" style="fill: rgb(0, 69, 10);"></path>
  <path class="fil0" d="M1417.2 1344.49c-11.04,0 -20,-8.97 -20,-20l0 -98.5 -109.52 0 0 98.5c0,26.33 -40,26.32 -40,0l0 -118.5c0,-11.04 8.97,-20 20,-20l149.52 0c11.04,0 20,8.97 20,20l0 118.5c0,11.04 -8.96,20 -20,20z" id="id_109" style="fill: rgb(0, 66, 11);"></path>
 </g>
</svg>