<svg xmlns="http://www.w3.org/2000/svg" viewBox="0 0 48 48"><g id="Window_Cleaner" data-name="Window Cleaner"><path d="M41,14H7a2,2,0,0,0-2,2v3a2,2,0,0,0,2,2,4,4,0,0,0,4,4h7.094A6,6,0,0,0,21,29.191V33.37A4,4,0,0,0,20,36v7a4,4,0,0,0,8,0V36a4,4,0,0,0-1-2.63V29.191A6,6,0,0,0,29.906,25H37a4,4,0,0,0,4-4,2,2,0,0,0,2-2V16A2,2,0,0,0,41,14ZM25.6,27.662a1,1,0,0,0-.6.916v5.2a1,1,0,0,0,.33.743A1.974,1.974,0,0,1,26,36v7a2,2,0,0,1-4,0V36a1.974,1.974,0,0,1,.67-1.479,1,1,0,0,0,.33-.743v-5.2a1,1,0,0,0-.6-.916A4.008,4.008,0,0,1,20.127,25h7.746A4.008,4.008,0,0,1,25.6,27.662ZM37,23H11a2,2,0,0,1-2-2H39A2,2,0,0,1,37,23ZM7,19V16H41v3Z" id="id_101" style="fill: rgb(15, 89, 3);"></path><path d="M12,9h1v1a1,1,0,0,0,2,0V9h1a1,1,0,0,0,0-2H15V6a1,1,0,0,0-2,0V7H12a1,1,0,0,0,0,2Z" id="id_102" style="fill: rgb(15, 92, 4);"></path><path d="M41,32H40V31a1,1,0,0,0-2,0v1H37a1,1,0,0,0,0,2h1v1a1,1,0,0,0,2,0V34h1a1,1,0,0,0,0-2Z" id="id_103" style="fill: rgb(12, 82, 2);"></path><path d="M13.479,35.122l-.911-.5a2.991,2.991,0,0,1-1.192-1.194l-.5-.911a1.04,1.04,0,0,0-1.754,0l-.5.911h0a2.986,2.986,0,0,1-1.192,1.192l-.911.5a1,1,0,0,0,0,1.756l.911.5a2.991,2.991,0,0,1,1.192,1.194l.5.911a1,1,0,0,0,1.754,0l.5-.912a2.986,2.986,0,0,1,1.192-1.192l.911-.5a1,1,0,0,0,0-1.756ZM10,37.019A4.966,4.966,0,0,0,8.982,36,4.941,4.941,0,0,0,10,34.981,4.966,4.966,0,0,0,11.018,36,4.941,4.941,0,0,0,10,37.019Z" id="id_104" style="fill: rgb(14, 82, 3);"></path><path d="M27.521,6.878l.911.5a2.991,2.991,0,0,1,1.192,1.194l.5.911a1,1,0,0,0,1.754,0l.5-.912a2.986,2.986,0,0,1,1.192-1.192l.911-.5a1,1,0,0,0,0-1.756l-.911-.5a2.991,2.991,0,0,1-1.192-1.194l-.5-.911a1.04,1.04,0,0,0-1.754,0l-.5.911h0a2.986,2.986,0,0,1-1.192,1.192l-.911.5a1,1,0,0,0,0,1.756ZM31,4.981A4.966,4.966,0,0,0,32.018,6,4.941,4.941,0,0,0,31,7.019,4.966,4.966,0,0,0,29.982,6,4.941,4.941,0,0,0,31,4.981Z" id="id_105" style="fill: rgb(13, 77, 3);"></path></g></svg>